# xmcd CD database file
#
# Track frame offsets:
#	150
#	22426
#	42863
#	71917
#	96126
#	120053
#	143326
#	166097
#	186360
#	208271
#	230091
#	251633
#	277107
#	299888
#
# Disc length: 4306 seconds
#
# Revision: 2
# Processed by: cddbd v1.5.2PL0 Copyright (c) Steve Scherf et al.
# Submitted via: CDex 1.70beta2
#
DISCID=dc10d00e
DTITLE=倖田來未 - BEST～BOUNCE＆LOVERS～
DYEAR=2007
DGENRE=R&B
TTITLE0=明日へ…
TTITLE1=大切な君へ
TTITLE2=1000の言葉
TTITLE3=Your　Song
TTITLE4=Pearl Moon
TTITLE5=Rain
TTITLE6=華
TTITLE7=ｈａｎｄｓ
TTITLE8=最後の雨 ～Time Heals Version～
TTITLE9=Promise
TTITLE10=you ～Piano Version～
TTITLE11=come back
TTITLE12=奇跡
TTITLE13=walk
EXTD=YEAR: 2007
EXTT0=
EXTT1=
EXTT2=
EXTT3=
EXTT4=
EXTT5=
EXTT6=
EXTT7=
EXTT8=
EXTT9=
EXTT10=
EXTT11=
EXTT12=
EXTT13=
PLAYORDER=
